
<svg width="88px" height="85px" viewBox="0 0 88 85" version="1.1" xmlns="http://www.w3.org/2000/svg" xmlns:xlink="http://www.w3.org/1999/xlink">
    <desc>Created by Fabien Dupont</desc>
    <defs>
        <path d="M42.6137174,56.2997478 C42.0111436,56.2997478 40.0116943,55.830511 37.2453329,55.6598795 C33.7120594,64.020825 30.8635289,71.9978496 30.945698,74.3866912 C30.945698,74.7279543 31.0278672,74.8985858 31.2195952,74.8559279 C31.822169,74.7706122 32.1782353,74.2160596 32.6712502,73.7894808 C32.1782353,74.6852964 31.2743746,75.9650329 30.7265803,76.0076908 C30.3157346,76.0503487 29.8501094,75.2825068 29.7953299,74.3440333 C29.6583814,70.5474815 31.9317279,62.6131148 34.6706995,55.5745637 C32.7534194,55.6172216 31.1100363,55.7878531 27.1659171,56.4703793 C23.0574596,64.6180354 19.1407301,74.3440333 19.1681198,77.3727432 C19.1681198,77.9272957 19.3324581,78.3112166 19.7159141,78.3965324 C19.5789656,78.4818482 19.4146273,78.5245061 19.250289,78.5245061 C18.6203255,78.567164 18.0725311,77.5433747 18.0725311,76.0076908 C18.0725311,72.59506 20.2363188,65.4285352 24.0434894,57.0249318 C19.2228992,58.2620105 15.1966109,61.034773 15.2240006,61.9732465 C15.2240006,62.4424833 14.4023091,61.4613519 14.4023091,59.9683259 C14.3749194,56.3424056 23.3587465,55.0200112 25.1938575,54.6360902 C27.9054395,48.8772757 32.2330147,39.6205146 32.205625,36.6344626 C32.1782353,35.0134629 31.1922055,34.4589104 30.1240065,34.5015683 C21.9344812,34.7148577 10.6225282,53.2710379 10.6499179,55.6172216 C10.6499179,56.1717741 10.8416459,56.2997478 11.1155431,56.2997478 C11.5263888,56.2997478 12.183742,56.0438004 12.4302495,55.7025374 C12.4302495,56.0864583 11.4442197,57.4088528 10.4581899,57.4088528 C9.47216005,57.4515107 8.84219656,56.598353 8.84219656,55.1906427 C8.78741713,48.024118 22.1262092,33.6484106 29.9048888,33.5204369 C32.013897,33.477779 34.1229052,34.2882789 34.1502949,37.7435676 C34.1502949,42.2226456 30.5348523,49.6877755 28.1793366,54.4654587 C29.3297048,54.337485 30.4526831,54.2948271 31.630441,54.2948271 C32.6986399,54.2948271 33.849008,54.337485 35.0815453,54.4654587 C37.6013992,48.2374074 40.5047092,41.8813825 42.9150043,37.7862255 C43.8462547,36.2505416 44.7227256,35.0561208 45.4074685,34.3309368 C45.9004834,33.8617 46.3113292,33.6484106 46.5030572,33.6484106 C48.0916608,33.6484106 49.0503009,36.463831 48.557286,35.9092785 C48.0368814,35.3973839 47.1604104,36.3358574 46.2839395,37.6155939 C43.818865,41.2841721 40.5594887,48.0667759 37.6013992,54.8493797 C40.5868784,55.3612743 42.6137174,56.0438004 42.6137174,56.2997478 Z M45.3823613,64.9166406 C45.8479865,62.9543779 46.8887957,59.925668 47.9022152,57.9634053 C45.1358538,62.3571675 41.4656318,68.499903 39.8222488,69.0117976 L39.603131,69.0117976 C39.1648956,69.0117976 38.3158143,67.8600347 38.3158143,66.8362455 C38.3158143,65.0019564 39.8222488,60.69351 41.3834626,57.323537 C42.3421027,55.2333006 43.4924708,53.1857221 44.1772137,52.3325644 C44.3141623,52.119275 44.4785006,52.0766171 44.5606698,52.0766171 C45.218023,52.0766171 46.2862219,53.7402746 46.2862219,54.8493797 C46.2862219,55.0200112 46.1766631,54.8067218 45.9301556,54.7640639 C45.5193099,54.6787481 44.3689417,56.8969582 43.4376914,58.7739051 C42.0408158,61.6319834 40.67133,65.3432195 40.67133,66.5802981 C41.9860364,65.7271404 44.7797875,61.8879308 46.0944939,59.925668 C47.5187592,57.7501159 49.5455982,54.0388798 51.1068121,52.1619329 C51.2437607,51.9913013 51.3807093,51.9486434 51.4902681,51.9486434 C52.1476213,51.9486434 53.1884306,53.612301 53.1884306,54.6787481 C53.1884306,54.8493797 53.1062614,54.6360902 52.859754,54.5934323 C52.6680259,54.5934323 52.3119596,54.9773533 51.9558933,55.5745637 C51.5450476,56.2570899 50.7781355,57.7927737 49.8742748,59.6697207 C48.504789,62.527799 47.4913695,65.5565089 47.4913695,66.7509297 C49.2169216,65.9404299 53.1062614,60.1389574 54.7770341,57.6648001 C54.9413724,57.4515107 55.078321,57.7927737 54.9961519,57.9207474 C52.6132465,61.9732465 48.1487227,69.0971134 46.5053397,69.0971134 C46.3683911,69.0971134 46.2040528,69.0117976 46.0671042,68.8411661 C45.6288687,68.499903 45.0810744,67.5187716 45.0810744,66.7509297 C45.0810744,66.3243508 45.2454127,65.5565089 45.3823613,64.9166406 Z M64.0096512,60.3949048 L62.3388784,65.2152458 C62.9414522,64.8739827 63.544026,64.5327196 64.1465998,64.2341145 C64.5848352,64.020825 65.0230707,64.1487987 64.6396147,64.3620881 C63.7631437,64.9166406 62.8866728,65.513851 62.0375916,66.0684035 C58.5317078,75.581112 54.0124045,86.2882412 48.7535789,88.4637934 C48.452292,88.591767 48.1510051,88.6344249 47.8497182,88.6344249 C46.8362987,88.6344249 45.9872175,87.9092409 45.9872175,86.1176097 C45.9872175,85.6483729 46.0419969,85.0938204 46.1789455,84.4539522 C47.2745342,79.0364007 52.6703084,72.1258233 58.9699433,67.4334559 C59.572517,65.8124562 61.8732533,59.3711155 61.8732533,59.3711155 C61.900643,59.3284576 61.2159001,60.0962996 60.6954954,60.8214836 C60.2846497,61.418694 58.7782153,63.5089304 57.2443911,65.3858774 C55.6831773,67.2628243 54.067184,69.0971134 53.4919999,69.0971134 C53.4372205,69.0971134 53.3002719,69.0544555 53.2181027,68.9691397 C52.7250878,68.499903 52.0403449,66.9642191 52.0403449,66.1110614 C52.0403449,61.4613519 58.3399798,51.9486434 63.352298,51.9486434 C64.4204969,51.9486434 65.7899828,52.6311696 65.7899828,54.6360902 C65.7899828,55.3612743 65.5160856,56.0864583 65.2695781,56.6410108 C65.2147987,56.6836687 65.187409,56.6410108 65.2147987,56.598353 C65.3243576,56.214432 65.4886959,55.7025374 65.4886959,55.0626691 C65.4886959,53.7829325 64.9682913,53.1430642 64.1465998,53.22838 C62.5579962,53.3563537 60.5859366,55.1479849 58.7782153,57.4941686 C56.1761922,60.9494573 54.1767428,66.1963772 54.45064,66.5376403 C54.5601989,66.7082718 55.6557875,65.5991668 56.8609351,64.3620881 C58.1756415,62.9970358 59.4629582,61.418694 60.3668188,60.2242732 C62.2567093,57.7501159 62.667555,57.1102476 63.1331802,56.7689845 C63.6535849,56.3850635 64.803953,58.6885893 64.6943941,59.200484 C64.6122249,59.0725103 64.4752764,58.9445367 64.0096512,60.3949048 Z M49.2192041,85.3497677 C52.423801,82.662321 55.6831773,75.7944014 58.4769284,68.7558503 C53.4919999,72.8510073 49.6848293,77.7140063 47.7675491,83.2595314 C47.4662622,84.1126891 47.3293136,84.7098995 47.3293136,85.1364783 C47.3293136,85.7336887 47.5758211,85.9469781 47.9318874,85.9469781 C48.3153434,85.9469781 48.7809686,85.6910308 49.2192041,85.3497677 Z M77.1863874,52.8018012 C76.9124903,52.7591433 76.6933725,52.6738275 76.5016445,52.6738275 C71.5441058,52.6738275 65.8196549,67.0495349 67.3534791,68.0733241 C68.8873032,69.0544555 72.8040327,62.2291938 74.6391438,57.8780895 C74.5021952,57.4941686 74.228298,56.214432 74.3378569,55.7878531 C74.420026,55.3612743 75.2417175,54.0815377 75.5977838,54.0388798 C75.871681,53.9962219 76.1729679,54.337485 76.2277473,54.4654587 C76.748152,55.7878531 77.4055052,56.7689845 78.5010938,56.6410108 C80.3362049,56.3850635 81.3496244,54.721406 81.6509113,54.7640639 C81.5139627,55.3612743 80.418374,56.7689845 79.0762779,57.4515107 C78.4737041,57.7501159 77.8985201,57.8354316 77.4602846,57.8354316 C77.0494388,57.8354316 76.7755417,57.7501159 76.6385931,57.6648001 C75.8990707,63.3382989 70.2293993,69.4810344 67.3260894,69.225087 C66.0661624,69.0971134 65.2444709,67.4761137 65.2444709,65.8551141 C65.2444709,58.9018788 71.2428189,51.9486434 75.5703941,51.9486434 C76.6112034,51.9486434 77.0494388,52.4178802 77.2411669,52.6738275 C77.3781154,52.8018012 77.2959463,52.8018012 77.1863874,52.8018012 Z M50.1614399,43.518993 C50.1614399,44.8168661 51.320127,44.8501449 52.0331652,44.8501449 C57.4032342,44.8501449 68.2770669,36.8299547 68.2770669,31.8048563 C68.2770669,29.7415709 66.427624,28.5102554 64.2439445,27.6117278 C61.5700512,26.5135275 58.5396388,25.9145092 58.5396388,22.985975 C58.5396388,17.395137 65.7368682,12.9357782 68.9901051,12.7693842 C71.0178075,12.6695478 72.3770365,13.4016813 72.3547541,15.9641487 C72.3101892,19.9243256 68.433044,24.2172905 66.0711049,24.2172905 C65.625456,24.2172905 64.9569827,23.9510601 64.9569827,23.2189266 C64.9569827,21.8544959 65.825998,20.4235076 66.2716469,20.024162 C65.9374102,20.5899016 65.8037156,21.2887563 65.8037156,21.7546595 C65.8037156,21.9543323 65.9374102,21.9543323 66.0711049,21.9543323 C66.9846851,21.9543323 71.3297617,18.227107 71.6194335,15.1987364 C71.7308457,14.1338149 71.1292197,13.8343057 70.2824868,13.8343057 C70.0373799,13.8343057 69.7477082,13.8675845 69.4580364,13.9008633 C66.6058836,14.3667665 60.054845,19.857768 60.054845,23.2854842 C60.054845,25.2156544 62.1939597,26.0476244 64.4444865,26.9794307 C66.9624027,28.0110734 69.5694486,29.2423889 69.5694486,32.9363354 C69.5694486,40.2243921 58.4727915,47.3460547 52.3896843,47.3460547 C50.919043,47.3460547 48.7799284,46.7137576 48.7799284,44.0847326 C48.7799284,39.1594706 58.8515931,31.205838 61.7260283,31.3056744 C55.8211807,33.7017478 50.1614399,41.056362 50.1614399,43.518993 Z M72.334489,42.4652069 C72.2476294,42.4652069 72.1824847,42.4652069 72.0739102,42.4312552 C71.7264719,42.2614968 71.1835994,41.4127047 71.1835994,40.8015743 C71.1835994,38.8323765 74.3322597,31.4309089 75.7220133,29.6993729 C75.8305878,29.5296145 75.9608772,29.4956628 76.0477368,29.4956628 C76.5471794,29.4956628 77.4157754,30.8537302 77.4157754,31.7025224 C77.4157754,31.8383291 77.3072009,31.6685707 77.1334817,31.634619 C76.2431709,31.4988123 73.2682297,39.2397967 73.0076509,40.6318159 C74.3322597,40.0885889 77.502635,35.3693045 78.8272438,33.366155 C78.9792481,33.1963966 79.0878226,33.4680101 79.0226779,33.5698651 C77.1334817,36.7613236 73.6808128,42.2954485 72.334489,42.4652069 Z M78.6774127,24.9064292 C79.1705356,24.8068008 79.6422184,25.4709904 79.92094,25.9691326 C80.1139011,26.3012274 80.2425419,26.7993696 80.1567814,26.7993696 C80.1139011,26.7993696 79.9423801,26.6665317 79.7065387,26.8325791 C79.3420566,27.0650454 78.3558108,28.4266341 78.0985293,28.9911953 C77.7983675,29.5889659 77.3481248,28.8915668 77.3266847,28.2937962 C77.3052446,27.3307213 78.1199694,25.1721051 78.6774127,24.9064292 Z M76.2366872,41.6003034 C76.2366872,40.5737064 77.2616546,39.033811 78.9773609,37.1174967 C79.3561532,36.672638 79.7795092,36.2277793 80.1805834,35.8171405 C80.046892,35.1669624 79.9800463,34.277245 79.9800463,33.4559675 C79.9800463,32.7031297 80.0246101,31.9845118 80.0914558,31.5396531 C80.3142748,30.239297 81.0941413,29.7944383 81.6289069,29.4522393 C81.829444,29.3495796 82.2082363,29.1784801 82.2973639,29.3495796 C82.2528001,29.4180194 82.2305182,29.4522393 82.1191087,29.7259985 C81.8517259,30.5472761 81.6734707,31.9845118 81.6734707,33.1137685 C81.6734707,33.5244073 81.7180345,33.9350461 81.7625983,34.2088052 C83.9016607,31.9845118 87.1993819,29.1442602 88.8482425,28.1176632 C89.0042158,28.0150035 89.0042158,28.186103 88.8928063,28.2887627 C86.285824,30.6499358 83.7679693,33.7297267 82.0299811,35.8513604 C82.5870286,39.9235284 85.1494471,46.1173301 88.0906579,46.1173301 C88.4248864,46.1173301 88.736833,46.1173301 89.0042158,46.0488903 C89.0710615,46.0146704 89.1601891,46.0488903 89.0264977,46.1173301 C88.6254235,46.3568694 88.1575036,46.4595291 87.7118656,46.4595291 C84.8820643,46.4595291 81.9631354,42.3873611 80.6262214,37.5623553 C79.400717,38.9995911 78.5762867,40.0946279 78.0415211,41.1896646 C77.5736012,42.079382 77.5513193,42.6953402 77.8855478,42.76378 C77.5736012,43.0375392 76.7491709,43.0033193 76.3480967,42.079382 C76.281251,41.9425024 76.2366872,41.7714029 76.2366872,41.6003034 Z M91.633485,22.653031 C93.3700115,19.2377423 93.99338,18.1662792 94.549959,17.4966148 C94.8839064,17.0948161 95.1733275,16.8269503 95.3736959,16.8269503 C96.6204329,16.7265007 97.5109593,18.6685275 97.0879592,18.3002121 C96.3755381,17.7979638 95.0620117,20.4766215 94.0824326,22.3851652 C97.6668014,22.1172994 102.364328,22.3851652 105.54796,23.3896618 C105.726065,23.4566283 105.815118,23.5235947 105.54796,23.4901115 C101.139854,22.9208967 97.0656961,22.95438 93.3477483,23.7914605 C92.5240114,25.3316887 91.7893271,27.0058498 90.8988007,28.9813599 C88.9619058,33.4011452 87.2921688,37.6535144 86.7578529,39.7964406 C87.7151688,39.9638567 91.4108534,34.5060915 92.7243798,32.6979975 C92.8579588,32.5305814 92.9470114,32.7984472 92.880222,32.8988969 C91.7893271,34.7739573 87.9155372,40.8679037 86.5797476,41.6045346 C86.2903266,41.7719507 86.067695,41.6380178 85.8673265,41.4706017 C85.6892212,41.3366688 85.1994317,40.6335211 85.0658527,40.1312728 C85.0435896,40.0643064 84.9990633,39.9973399 84.9990633,39.6290245 C84.9990633,38.6245278 86.0009055,35.3431721 88.7392742,28.9813599 C89.3403795,27.6085478 89.9860111,26.135286 90.8097481,24.4946082 C88.6947479,25.1307894 87.3812214,26.737984 87.9600636,27.2402324 C87.603853,27.2402324 86.8469056,26.6040511 86.7801161,25.532588 C86.6910634,24.0258431 89.1400111,23.0883128 91.633485,22.653031 Z M102.375566,32.3655102 C101.465313,33.8564229 100.576733,35.6861794 99.6231351,37.5159358 C97.9326655,40.8027206 94.4867083,50.4597686 93.2080197,54.2209347 C94.920162,50.5275374 98.0627016,46.020915 98.6912095,45.7159556 C98.799573,45.7159556 98.799573,45.9192618 98.799573,45.9192618 C95.7003787,49.782081 92.839584,56.8978006 92.6011845,58.5242508 C92.5578391,58.5920196 92.4711484,58.625904 92.3627849,58.625904 C91.4958775,58.7614415 91.1707872,56.8978006 91.2358052,56.2878818 C91.3008233,55.2713504 91.7559497,53.7804378 92.1460581,52.3572938 C93.2730378,48.4944746 96.2205232,39.5151142 99.2763721,34.0258448 C97.0874307,37.5159358 94.0315818,42.5985927 92.7312206,43.0052052 C92.6662026,43.0052052 92.6011845,43.0052052 92.5578391,43.0052052 C92.2110761,43.0052052 91.5392228,42.090327 91.5392228,41.2771019 C91.5392228,39.8200736 92.7312206,36.3977513 93.9665638,33.7208854 C94.7034351,32.0605508 95.5920153,30.5357538 96.1338325,29.8580662 C96.2421959,29.6886443 96.372232,29.6547599 96.4372501,29.6547599 C96.9573946,29.6547599 97.7809567,30.9762507 97.7809567,31.8572446 C97.7809567,31.9927821 97.7159386,31.8233602 97.5425571,31.7894758 C97.1957941,31.721707 96.307214,33.3481572 95.5703426,34.8729543 C94.4650356,37.1093233 93.4030739,40.0911486 93.4030739,41.0737956 C94.4433629,40.3961081 96.653977,37.346514 97.6725932,35.7878325 C98.8212457,34.0597292 100.511715,31.1456726 101.703713,29.6547599 C101.833749,29.485338 101.92044,29.4514536 102.028803,29.4514536 C102.527275,29.4514536 103.37251,30.8068288 103.37251,31.6539383 C103.37251,31.7894758 103.285819,31.6200539 103.13411,31.5861695 C102.960729,31.5522851 102.678984,31.8572446 102.375566,32.3655102 Z" id="path-1"></path>
        <filter x="-1.0%" y="-1.3%" width="104.1%" height="105.3%" filterUnits="objectBoundingBox" id="filter-2">
            <feOffset dx="1" dy="1" in="SourceAlpha" result="shadowOffsetOuter1"></feOffset>
            <feGaussianBlur stdDeviation="0.5" in="shadowOffsetOuter1" result="shadowBlurOuter1"></feGaussianBlur>
            <feComposite in="shadowBlurOuter1" in2="SourceAlpha" operator="out" result="shadowBlurOuter1"></feComposite>
            <feColorMatrix values="0 0 0 0 0.137254902   0 0 0 0 0.121568627   0 0 0 0 0.125490196  0 0 0 1 0" type="matrix" in="shadowBlurOuter1"></feColorMatrix>
        </filter>
    </defs>
    <g id="gfx" stroke="none" stroke-width="1" fill="none" fill-rule="evenodd">
        <g id="h60_logotype" transform="translate(-11.000000, -6.000000)">
            <g id="Hugo-Sixty">
                <g transform="translate(57.279300, 50.697514) rotate(-16.000000) translate(-57.279300, -50.697514) ">
                    <use fill="black" fill-opacity="1" filter="url(#filter-2)" xlink:href="#path-1"></use>
                    <use fill="#F75E4A" fill-rule="evenodd" xlink:href="#path-1"></use>
                </g>
            </g>
        </g>
    </g>
</svg> 