<svg width="652px" height="332px" viewBox="0 0 652 332" version="1.1" xmlns="http://www.w3.org/2000/svg" xmlns:xlink="http://www.w3.org/1999/xlink">
    <g id="frame-menu" stroke="none" stroke-width="1" fill="none" fill-rule="evenodd">
        <g id="frame-menu-/-lg" transform="translate(-640.000000, -69.000000)">
            <g id="Group" transform="translate(965.500000, 234.500000) scale(-1, 1) translate(-965.500000, -234.500000) translate(640.000000, 69.000000)">
                <path d="M530.47667,0 C599.804328,0 634.468157,0 634.468157,0 C644.972347,0 650.224442,7.87964779 650.224442,23.6389434 C650.224442,47.2778868 639.677989,47.2778868 634.468157,47.2778868 C631.101917,47.2778868 634.468157,47.2778868 530.47667,47.2778868 C526.277602,47.2778868 524.176764,44.1260276 524.174156,37.8223094 L511.569128,31.5185912 L511.569128,28.3667321 L498.964099,28.3667321 L498.964099,37.8223094 L479.426305,37.8223094 L479.426305,28.3667321 L442.24147,28.3667321 C438.039794,28.3667321 435.938956,26.7908025 435.938956,23.6389434 C435.938956,20.4870843 438.039794,18.9111547 442.24147,18.9111547 L479.426305,18.9111547 L479.426305,9.45557735 L498.964099,9.45557735 L498.964099,18.9111547 L511.569128,18.9111547 L511.569128,15.7592956 L524.174156,9.45557735 C524.236768,3.15185912 526.337606,1.52095796e-16 530.47667,0 Z" id="Rectangle-2" fill="#FFFFFF"></path>
                <g id="Group-2" transform="translate(0.000000, 23.331944)">
                    <polygon id="Rectangle-2" fill="#FFFFFF" transform="translate(271.530867, 155.988758) rotate(60.000000) translate(-271.530867, -155.988758) " points="290.618599 424.062278 278.022212 424.062278 278.022212 -80.2486286 252.443135 -95.160853 262.205335 -112.084763 290.618599 -80.2486286"></polygon>
                    <path d="M445.9121,1.26077727 C415.575801,-1.68103636 396.523766,3.46713749 388.755994,16.7052988 C373.313168,43.0236072 454.80984,33.0954033 483.071442,33.0954033 C518.971145,33.0954033 511.699078,46.496813 511.413312,47.1215504 C499.446745,73.2826787 378.005431,74.9471577 336.323533,94.5582951 C294.641635,114.169432 355.880084,144.911012 309.87112,171.465708 C263.862157,198.020405 221.244864,162.341363 163.753031,194.159699 C106.261198,225.978035 125.312543,269.937287 95.7325412,289.978772 C76.0125399,303.339761 44.1016929,308.38287 0,305.108099" id="Path-3" stroke="#FFFFFF" stroke-width="5"></path>
                </g>
            </g>
        </g>
    </g>
  </svg>
