<svg width="112px" height="96px" viewBox="0 0 112 96" version="1.1" xmlns="http://www.w3.org/2000/svg" xmlns:xlink="http://www.w3.org/1999/xlink">
    <defs>
        <path d="M56,0 C25.05125,0 0,24.5348571 0,54.8571429 L0,65.1428571 C-3.4166831e-05,67.7401689 1.49797132,70.1145764 3.86946875,71.2761429 L7.01575,72.8170714 C7.45565625,85.6935 18.2483438,96 31.5,96 L36.75,96 C39.6495313,96 42,93.6975 42,90.8571429 L42,53.1428571 C42,50.3025 39.6495313,48 36.75,48 L31.5,48 C24.6439375,48 18.4469688,50.7597857 14,55.2057857 L14,54.8571429 C14,32.1709286 32.8411563,13.7142857 56,13.7142857 C79.1588438,13.7142857 98,32.1709286 98,54.8571429 L98,55.2057857 C93.5530313,50.7597857 87.3560625,48 80.5,48 L75.25,48 C72.3504688,48 70,50.3025 70,53.1428571 L70,90.8571429 C70,93.6975 72.3504688,96 75.25,96 L80.5,96 C93.7516563,96 104.544344,85.6932857 104.98425,72.8170714 L108.130313,71.2761429 C110.501895,70.1146362 111.999993,67.7402166 112,65.1428571 L112,54.8571429 C112,24.5402143 86.954,0 56,0 Z" id="path-1"></path>
    </defs>
    <g id="Page-1" stroke="none" stroke-width="1" fill="none" fill-rule="evenodd">
        <mask id="mask-2" fill="white">
            <use xlink:href="#path-1"></use>
        </mask>
        <use id="Mask" fill="#FF0030" fill-rule="nonzero" xlink:href="#path-1"></use>
    </g>
</svg>
